<mxfile host="app.diagrams.net" agent="Mozilla/5.0 (Macintosh; Intel Mac OS X 10_15_7) AppleWebKit/537.36 (KHTML, like Gecko) Chrome/131.0.0.0 Safari/537.36" version="25.0.3">
  <diagram name="Page-1" id="vtp36uxE_2AEdIQYJViv">
    <mxGraphModel dx="1283" dy="2521" grid="1" gridSize="10" guides="1" tooltips="1" connect="1" arrows="1" fold="1" page="1" pageScale="1" pageWidth="1100" pageHeight="1700" math="0" shadow="0">
      <root>
        <mxCell id="0" />
        <mxCell id="1" parent="0" />
        <mxCell id="J0RrZv6i257wIk_h2yhV-2" value="Dream11" style="swimlane;whiteSpace=wrap;html=1;" vertex="1" parent="1">
          <mxGeometry x="150" y="-1610" width="830" height="670" as="geometry" />
        </mxCell>
        <mxCell id="J0RrZv6i257wIk_h2yhV-10" value="&lt;font style=&quot;font-size: 14px;&quot;&gt;Create Account&lt;/font&gt;" style="ellipse;whiteSpace=wrap;html=1;" vertex="1" parent="J0RrZv6i257wIk_h2yhV-2">
          <mxGeometry x="50" y="564" width="130" height="60" as="geometry" />
        </mxCell>
        <mxCell id="J0RrZv6i257wIk_h2yhV-11" value="&lt;font style=&quot;font-size: 14px;&quot;&gt;Update Account&lt;/font&gt;" style="ellipse;whiteSpace=wrap;html=1;" vertex="1" parent="J0RrZv6i257wIk_h2yhV-2">
          <mxGeometry x="250" y="564" width="130" height="60" as="geometry" />
        </mxCell>
        <mxCell id="J0RrZv6i257wIk_h2yhV-12" value="&lt;font style=&quot;font-size: 14px;&quot;&gt;Login/Logout&lt;/font&gt;" style="ellipse;whiteSpace=wrap;html=1;" vertex="1" parent="J0RrZv6i257wIk_h2yhV-2">
          <mxGeometry x="440" y="564" width="130" height="60" as="geometry" />
        </mxCell>
        <mxCell id="J0RrZv6i257wIk_h2yhV-13" value="&lt;font style=&quot;font-size: 14px;&quot;&gt;View Match Details&lt;/font&gt;" style="ellipse;whiteSpace=wrap;html=1;" vertex="1" parent="J0RrZv6i257wIk_h2yhV-2">
          <mxGeometry x="50" y="155" width="130" height="60" as="geometry" />
        </mxCell>
        <mxCell id="J0RrZv6i257wIk_h2yhV-14" value="&lt;font style=&quot;font-size: 14px;&quot;&gt;Search Match&lt;/font&gt;" style="ellipse;whiteSpace=wrap;html=1;" vertex="1" parent="J0RrZv6i257wIk_h2yhV-2">
          <mxGeometry x="50" y="50" width="130" height="60" as="geometry" />
        </mxCell>
        <mxCell id="J0RrZv6i257wIk_h2yhV-15" value="&lt;font style=&quot;font-size: 14px;&quot;&gt;View Contests&lt;/font&gt;" style="ellipse;whiteSpace=wrap;html=1;" vertex="1" parent="J0RrZv6i257wIk_h2yhV-2">
          <mxGeometry x="50" y="250" width="130" height="60" as="geometry" />
        </mxCell>
        <mxCell id="J0RrZv6i257wIk_h2yhV-16" value="&lt;font style=&quot;font-size: 14px;&quot;&gt;Create Team&lt;/font&gt;" style="ellipse;whiteSpace=wrap;html=1;" vertex="1" parent="J0RrZv6i257wIk_h2yhV-2">
          <mxGeometry x="50" y="354" width="130" height="60" as="geometry" />
        </mxCell>
        <mxCell id="J0RrZv6i257wIk_h2yhV-17" value="&lt;font style=&quot;font-size: 14px;&quot;&gt;Participate&lt;/font&gt;" style="ellipse;whiteSpace=wrap;html=1;" vertex="1" parent="J0RrZv6i257wIk_h2yhV-2">
          <mxGeometry x="50" y="455" width="130" height="60" as="geometry" />
        </mxCell>
        <mxCell id="J0RrZv6i257wIk_h2yhV-18" value="&lt;font style=&quot;font-size: 14px;&quot;&gt;View Score&lt;/font&gt;" style="ellipse;whiteSpace=wrap;html=1;" vertex="1" parent="J0RrZv6i257wIk_h2yhV-2">
          <mxGeometry x="240" y="50" width="130" height="60" as="geometry" />
        </mxCell>
        <mxCell id="J0RrZv6i257wIk_h2yhV-19" value="&lt;font style=&quot;font-size: 14px;&quot;&gt;View Ranking List&lt;/font&gt;" style="ellipse;whiteSpace=wrap;html=1;" vertex="1" parent="J0RrZv6i257wIk_h2yhV-2">
          <mxGeometry x="240" y="155" width="130" height="60" as="geometry" />
        </mxCell>
        <mxCell id="J0RrZv6i257wIk_h2yhV-36" style="edgeStyle=orthogonalEdgeStyle;rounded=0;orthogonalLoop=1;jettySize=auto;html=1;entryX=0.5;entryY=0;entryDx=0;entryDy=0;endArrow=block;endFill=0;endSize=10;" edge="1" parent="J0RrZv6i257wIk_h2yhV-2" source="J0RrZv6i257wIk_h2yhV-20" target="J0RrZv6i257wIk_h2yhV-23">
          <mxGeometry relative="1" as="geometry" />
        </mxCell>
        <mxCell id="J0RrZv6i257wIk_h2yhV-20" value="&lt;font style=&quot;font-size: 14px;&quot;&gt;Credit Card&lt;/font&gt;" style="ellipse;whiteSpace=wrap;html=1;" vertex="1" parent="J0RrZv6i257wIk_h2yhV-2">
          <mxGeometry x="250" y="250" width="130" height="60" as="geometry" />
        </mxCell>
        <mxCell id="J0RrZv6i257wIk_h2yhV-39" style="edgeStyle=orthogonalEdgeStyle;rounded=0;orthogonalLoop=1;jettySize=auto;html=1;exitX=0;exitY=0.5;exitDx=0;exitDy=0;entryX=1;entryY=0.5;entryDx=0;entryDy=0;endArrow=block;endFill=0;endSize=10;dashed=1;dashPattern=8 8;" edge="1" parent="J0RrZv6i257wIk_h2yhV-2" source="J0RrZv6i257wIk_h2yhV-23" target="J0RrZv6i257wIk_h2yhV-17">
          <mxGeometry relative="1" as="geometry" />
        </mxCell>
        <mxCell id="J0RrZv6i257wIk_h2yhV-41" value="&lt;font style=&quot;font-size: 15px;&quot;&gt;&amp;lt;&amp;lt; includes &amp;gt;&amp;gt;&lt;/font&gt;" style="edgeLabel;html=1;align=center;verticalAlign=middle;resizable=0;points=[];" vertex="1" connectable="0" parent="J0RrZv6i257wIk_h2yhV-39">
          <mxGeometry x="0.0542" y="-2" relative="1" as="geometry">
            <mxPoint as="offset" />
          </mxGeometry>
        </mxCell>
        <mxCell id="J0RrZv6i257wIk_h2yhV-23" value="&lt;span style=&quot;font-size: 14px;&quot;&gt;Deposit/Withdraw Money&lt;/span&gt;" style="ellipse;whiteSpace=wrap;html=1;" vertex="1" parent="J0RrZv6i257wIk_h2yhV-2">
          <mxGeometry x="250" y="354" width="130" height="60" as="geometry" />
        </mxCell>
        <mxCell id="J0RrZv6i257wIk_h2yhV-37" style="edgeStyle=orthogonalEdgeStyle;rounded=0;orthogonalLoop=1;jettySize=auto;html=1;exitX=0.5;exitY=0;exitDx=0;exitDy=0;entryX=0.5;entryY=1;entryDx=0;entryDy=0;endSize=10;endArrow=block;endFill=0;" edge="1" parent="J0RrZv6i257wIk_h2yhV-2" source="J0RrZv6i257wIk_h2yhV-22" target="J0RrZv6i257wIk_h2yhV-23">
          <mxGeometry relative="1" as="geometry" />
        </mxCell>
        <mxCell id="J0RrZv6i257wIk_h2yhV-22" value="&lt;font style=&quot;font-size: 14px;&quot;&gt;UPI&lt;/font&gt;" style="ellipse;whiteSpace=wrap;html=1;" vertex="1" parent="J0RrZv6i257wIk_h2yhV-2">
          <mxGeometry x="250" y="455" width="130" height="60" as="geometry" />
        </mxCell>
        <mxCell id="J0RrZv6i257wIk_h2yhV-38" style="edgeStyle=orthogonalEdgeStyle;rounded=0;orthogonalLoop=1;jettySize=auto;html=1;entryX=1;entryY=0.5;entryDx=0;entryDy=0;endSize=10;endArrow=block;endFill=0;" edge="1" parent="J0RrZv6i257wIk_h2yhV-2" source="J0RrZv6i257wIk_h2yhV-21" target="J0RrZv6i257wIk_h2yhV-23">
          <mxGeometry relative="1" as="geometry" />
        </mxCell>
        <mxCell id="J0RrZv6i257wIk_h2yhV-21" value="&lt;font style=&quot;font-size: 14px;&quot;&gt;New Banking&lt;/font&gt;" style="ellipse;whiteSpace=wrap;html=1;" vertex="1" parent="J0RrZv6i257wIk_h2yhV-2">
          <mxGeometry x="440" y="354" width="130" height="60" as="geometry" />
        </mxCell>
        <mxCell id="J0RrZv6i257wIk_h2yhV-24" value="&lt;font style=&quot;font-size: 14px;&quot;&gt;Organise Contests&lt;/font&gt;" style="ellipse;whiteSpace=wrap;html=1;" vertex="1" parent="J0RrZv6i257wIk_h2yhV-2">
          <mxGeometry x="640" y="354" width="130" height="60" as="geometry" />
        </mxCell>
        <mxCell id="J0RrZv6i257wIk_h2yhV-26" value="&lt;font style=&quot;font-size: 14px;&quot;&gt;Cancel Contest&lt;/font&gt;" style="ellipse;whiteSpace=wrap;html=1;" vertex="1" parent="J0RrZv6i257wIk_h2yhV-2">
          <mxGeometry x="640" y="564" width="130" height="60" as="geometry" />
        </mxCell>
        <mxCell id="J0RrZv6i257wIk_h2yhV-25" value="&lt;font style=&quot;font-size: 14px;&quot;&gt;Update Contest&lt;/font&gt;" style="ellipse;whiteSpace=wrap;html=1;" vertex="1" parent="J0RrZv6i257wIk_h2yhV-2">
          <mxGeometry x="640" y="455" width="130" height="60" as="geometry" />
        </mxCell>
        <mxCell id="J0RrZv6i257wIk_h2yhV-27" value="&lt;span style=&quot;font-size: 14px;&quot;&gt;Block/Unblock Users&lt;/span&gt;" style="ellipse;whiteSpace=wrap;html=1;" vertex="1" parent="J0RrZv6i257wIk_h2yhV-2">
          <mxGeometry x="440" y="455" width="130" height="60" as="geometry" />
        </mxCell>
        <mxCell id="J0RrZv6i257wIk_h2yhV-28" value="&lt;font style=&quot;font-size: 14px;&quot;&gt;Fetch Upcoming Matches&lt;/font&gt;" style="ellipse;whiteSpace=wrap;html=1;" vertex="1" parent="J0RrZv6i257wIk_h2yhV-2">
          <mxGeometry x="640" y="50" width="130" height="60" as="geometry" />
        </mxCell>
        <mxCell id="J0RrZv6i257wIk_h2yhV-29" value="&lt;font style=&quot;font-size: 14px;&quot;&gt;Fetch Ongoing Match Updates&lt;/font&gt;" style="ellipse;whiteSpace=wrap;html=1;" vertex="1" parent="J0RrZv6i257wIk_h2yhV-2">
          <mxGeometry x="640" y="155" width="130" height="60" as="geometry" />
        </mxCell>
        <mxCell id="J0RrZv6i257wIk_h2yhV-30" value="&lt;font style=&quot;font-size: 14px;&quot;&gt;Update Scores&lt;/font&gt;" style="ellipse;whiteSpace=wrap;html=1;" vertex="1" parent="J0RrZv6i257wIk_h2yhV-2">
          <mxGeometry x="640" y="250" width="130" height="60" as="geometry" />
        </mxCell>
        <mxCell id="J0RrZv6i257wIk_h2yhV-31" value="&lt;font style=&quot;font-size: 14px;&quot;&gt;Update Ranking&amp;nbsp; List&lt;/font&gt;" style="ellipse;whiteSpace=wrap;html=1;" vertex="1" parent="J0RrZv6i257wIk_h2yhV-2">
          <mxGeometry x="440" y="250" width="130" height="60" as="geometry" />
        </mxCell>
        <mxCell id="J0RrZv6i257wIk_h2yhV-34" style="edgeStyle=orthogonalEdgeStyle;rounded=0;orthogonalLoop=1;jettySize=auto;html=1;exitX=1;exitY=0.5;exitDx=0;exitDy=0;entryX=0;entryY=0.5;entryDx=0;entryDy=0;endArrow=block;endFill=0;startSize=15;endSize=10;" edge="1" parent="J0RrZv6i257wIk_h2yhV-2" source="J0RrZv6i257wIk_h2yhV-33" target="J0RrZv6i257wIk_h2yhV-28">
          <mxGeometry relative="1" as="geometry" />
        </mxCell>
        <mxCell id="J0RrZv6i257wIk_h2yhV-33" value="&lt;font style=&quot;font-size: 14px;&quot;&gt;Cricket&lt;/font&gt;" style="ellipse;whiteSpace=wrap;html=1;" vertex="1" parent="J0RrZv6i257wIk_h2yhV-2">
          <mxGeometry x="440" y="50" width="130" height="60" as="geometry" />
        </mxCell>
        <mxCell id="J0RrZv6i257wIk_h2yhV-35" style="edgeStyle=orthogonalEdgeStyle;rounded=0;orthogonalLoop=1;jettySize=auto;html=1;entryX=0;entryY=1;entryDx=0;entryDy=0;endSize=10;endArrow=block;endFill=0;" edge="1" parent="J0RrZv6i257wIk_h2yhV-2" source="J0RrZv6i257wIk_h2yhV-32" target="J0RrZv6i257wIk_h2yhV-28">
          <mxGeometry relative="1" as="geometry">
            <Array as="points">
              <mxPoint x="505" y="140" />
              <mxPoint x="659" y="140" />
            </Array>
          </mxGeometry>
        </mxCell>
        <mxCell id="J0RrZv6i257wIk_h2yhV-32" value="&lt;font style=&quot;font-size: 14px;&quot;&gt;Football&lt;/font&gt;" style="ellipse;whiteSpace=wrap;html=1;" vertex="1" parent="J0RrZv6i257wIk_h2yhV-2">
          <mxGeometry x="440" y="155" width="130" height="60" as="geometry" />
        </mxCell>
        <mxCell id="J0RrZv6i257wIk_h2yhV-43" style="edgeStyle=orthogonalEdgeStyle;rounded=0;orthogonalLoop=1;jettySize=auto;html=1;entryX=0;entryY=0.5;entryDx=0;entryDy=0;endArrow=none;endFill=0;strokeColor=#CC0000;" edge="1" parent="1" source="J0RrZv6i257wIk_h2yhV-3" target="J0RrZv6i257wIk_h2yhV-14">
          <mxGeometry relative="1" as="geometry">
            <Array as="points">
              <mxPoint x="80" y="-1530" />
            </Array>
          </mxGeometry>
        </mxCell>
        <mxCell id="J0RrZv6i257wIk_h2yhV-44" style="edgeStyle=orthogonalEdgeStyle;rounded=0;orthogonalLoop=1;jettySize=auto;html=1;entryX=0;entryY=0.5;entryDx=0;entryDy=0;strokeColor=#CC0000;endArrow=none;endFill=0;" edge="1" parent="1" source="J0RrZv6i257wIk_h2yhV-3" target="J0RrZv6i257wIk_h2yhV-13">
          <mxGeometry relative="1" as="geometry">
            <Array as="points">
              <mxPoint x="80" y="-1425" />
            </Array>
          </mxGeometry>
        </mxCell>
        <mxCell id="J0RrZv6i257wIk_h2yhV-45" style="edgeStyle=orthogonalEdgeStyle;rounded=0;orthogonalLoop=1;jettySize=auto;html=1;entryX=0;entryY=0.5;entryDx=0;entryDy=0;strokeColor=#CC0000;endArrow=none;endFill=0;" edge="1" parent="1" source="J0RrZv6i257wIk_h2yhV-3" target="J0RrZv6i257wIk_h2yhV-15">
          <mxGeometry relative="1" as="geometry">
            <Array as="points">
              <mxPoint x="80" y="-1330" />
            </Array>
          </mxGeometry>
        </mxCell>
        <mxCell id="J0RrZv6i257wIk_h2yhV-46" style="edgeStyle=orthogonalEdgeStyle;rounded=0;orthogonalLoop=1;jettySize=auto;html=1;entryX=0;entryY=0.5;entryDx=0;entryDy=0;strokeColor=#CC0000;endArrow=none;endFill=0;" edge="1" parent="1" source="J0RrZv6i257wIk_h2yhV-3" target="J0RrZv6i257wIk_h2yhV-16">
          <mxGeometry relative="1" as="geometry">
            <Array as="points">
              <mxPoint x="80" y="-1226" />
            </Array>
          </mxGeometry>
        </mxCell>
        <mxCell id="J0RrZv6i257wIk_h2yhV-47" style="edgeStyle=orthogonalEdgeStyle;rounded=0;orthogonalLoop=1;jettySize=auto;html=1;entryX=0;entryY=0.5;entryDx=0;entryDy=0;endArrow=none;endFill=0;strokeColor=#CC0000;" edge="1" parent="1" source="J0RrZv6i257wIk_h2yhV-3" target="J0RrZv6i257wIk_h2yhV-17">
          <mxGeometry relative="1" as="geometry">
            <Array as="points">
              <mxPoint x="170" y="-1065" />
              <mxPoint x="170" y="-1125" />
            </Array>
          </mxGeometry>
        </mxCell>
        <mxCell id="J0RrZv6i257wIk_h2yhV-48" style="edgeStyle=orthogonalEdgeStyle;rounded=0;orthogonalLoop=1;jettySize=auto;html=1;entryX=0;entryY=0.5;entryDx=0;entryDy=0;strokeColor=#CC0000;endArrow=none;endFill=0;" edge="1" parent="1" source="J0RrZv6i257wIk_h2yhV-3" target="J0RrZv6i257wIk_h2yhV-10">
          <mxGeometry relative="1" as="geometry">
            <Array as="points">
              <mxPoint x="170" y="-1065" />
              <mxPoint x="170" y="-1016" />
            </Array>
          </mxGeometry>
        </mxCell>
        <mxCell id="J0RrZv6i257wIk_h2yhV-49" style="edgeStyle=orthogonalEdgeStyle;rounded=0;orthogonalLoop=1;jettySize=auto;html=1;entryX=0.5;entryY=0;entryDx=0;entryDy=0;strokeColor=#CC0000;endArrow=none;endFill=0;" edge="1" parent="1" source="J0RrZv6i257wIk_h2yhV-3" target="J0RrZv6i257wIk_h2yhV-11">
          <mxGeometry relative="1" as="geometry" />
        </mxCell>
        <mxCell id="J0RrZv6i257wIk_h2yhV-50" style="edgeStyle=orthogonalEdgeStyle;rounded=0;orthogonalLoop=1;jettySize=auto;html=1;entryX=0.5;entryY=0;entryDx=0;entryDy=0;strokeColor=#CC0000;endArrow=none;endFill=0;" edge="1" parent="1" source="J0RrZv6i257wIk_h2yhV-3" target="J0RrZv6i257wIk_h2yhV-12">
          <mxGeometry relative="1" as="geometry" />
        </mxCell>
        <mxCell id="J0RrZv6i257wIk_h2yhV-51" style="edgeStyle=orthogonalEdgeStyle;rounded=0;orthogonalLoop=1;jettySize=auto;html=1;strokeColor=#CC0000;endArrow=none;endFill=0;" edge="1" parent="1" source="J0RrZv6i257wIk_h2yhV-3">
          <mxGeometry relative="1" as="geometry">
            <mxPoint x="455" y="-1560" as="targetPoint" />
            <Array as="points">
              <mxPoint x="80" y="-1580" />
              <mxPoint x="455" y="-1580" />
            </Array>
          </mxGeometry>
        </mxCell>
        <mxCell id="J0RrZv6i257wIk_h2yhV-52" style="edgeStyle=orthogonalEdgeStyle;rounded=0;orthogonalLoop=1;jettySize=auto;html=1;entryX=0.5;entryY=0;entryDx=0;entryDy=0;strokeColor=#CC0000;endArrow=none;endFill=0;" edge="1" parent="1" source="J0RrZv6i257wIk_h2yhV-3" target="J0RrZv6i257wIk_h2yhV-19">
          <mxGeometry relative="1" as="geometry">
            <Array as="points">
              <mxPoint x="80" y="-1475" />
              <mxPoint x="455" y="-1475" />
            </Array>
          </mxGeometry>
        </mxCell>
        <mxCell id="J0RrZv6i257wIk_h2yhV-53" style="edgeStyle=orthogonalEdgeStyle;rounded=0;orthogonalLoop=1;jettySize=auto;html=1;entryX=0;entryY=0;entryDx=0;entryDy=0;strokeColor=#CC0000;endArrow=none;endFill=0;" edge="1" parent="1" source="J0RrZv6i257wIk_h2yhV-3" target="J0RrZv6i257wIk_h2yhV-23">
          <mxGeometry relative="1" as="geometry">
            <Array as="points">
              <mxPoint x="80" y="-1280" />
              <mxPoint x="419" y="-1280" />
            </Array>
          </mxGeometry>
        </mxCell>
        <mxCell id="J0RrZv6i257wIk_h2yhV-3" value="&lt;font style=&quot;font-size: 14px;&quot;&gt;User&lt;/font&gt;" style="shape=umlActor;verticalLabelPosition=bottom;verticalAlign=top;html=1;outlineConnect=0;" vertex="1" parent="1">
          <mxGeometry x="50" y="-1120" width="60" height="110" as="geometry" />
        </mxCell>
        <mxCell id="J0RrZv6i257wIk_h2yhV-54" style="edgeStyle=orthogonalEdgeStyle;rounded=0;orthogonalLoop=1;jettySize=auto;html=1;entryX=1;entryY=0.5;entryDx=0;entryDy=0;endArrow=none;endFill=0;strokeColor=#004C99;exitX=0.5;exitY=0;exitDx=0;exitDy=0;exitPerimeter=0;" edge="1" parent="1" source="J0RrZv6i257wIk_h2yhV-5" target="J0RrZv6i257wIk_h2yhV-28">
          <mxGeometry relative="1" as="geometry">
            <Array as="points">
              <mxPoint x="1040" y="-1530" />
            </Array>
          </mxGeometry>
        </mxCell>
        <mxCell id="J0RrZv6i257wIk_h2yhV-55" style="edgeStyle=orthogonalEdgeStyle;rounded=0;orthogonalLoop=1;jettySize=auto;html=1;entryX=1;entryY=0.5;entryDx=0;entryDy=0;strokeColor=#004C99;endArrow=none;endFill=0;" edge="1" parent="1" source="J0RrZv6i257wIk_h2yhV-5" target="J0RrZv6i257wIk_h2yhV-29">
          <mxGeometry relative="1" as="geometry">
            <Array as="points">
              <mxPoint x="960" y="-1375" />
              <mxPoint x="960" y="-1425" />
            </Array>
          </mxGeometry>
        </mxCell>
        <mxCell id="J0RrZv6i257wIk_h2yhV-56" style="edgeStyle=orthogonalEdgeStyle;rounded=0;orthogonalLoop=1;jettySize=auto;html=1;entryX=1;entryY=0.5;entryDx=0;entryDy=0;strokeColor=#004C99;endArrow=none;endFill=0;" edge="1" parent="1" source="J0RrZv6i257wIk_h2yhV-5" target="J0RrZv6i257wIk_h2yhV-30">
          <mxGeometry relative="1" as="geometry">
            <Array as="points">
              <mxPoint x="960" y="-1375" />
              <mxPoint x="960" y="-1330" />
            </Array>
          </mxGeometry>
        </mxCell>
        <mxCell id="J0RrZv6i257wIk_h2yhV-57" style="edgeStyle=orthogonalEdgeStyle;rounded=0;orthogonalLoop=1;jettySize=auto;html=1;entryX=1;entryY=0.5;entryDx=0;entryDy=0;strokeColor=#004C99;endArrow=none;endFill=0;" edge="1" parent="1" source="J0RrZv6i257wIk_h2yhV-5" target="J0RrZv6i257wIk_h2yhV-24">
          <mxGeometry relative="1" as="geometry">
            <Array as="points">
              <mxPoint x="960" y="-1375" />
              <mxPoint x="960" y="-1226" />
            </Array>
          </mxGeometry>
        </mxCell>
        <mxCell id="J0RrZv6i257wIk_h2yhV-62" style="edgeStyle=orthogonalEdgeStyle;rounded=0;orthogonalLoop=1;jettySize=auto;html=1;entryX=0.5;entryY=0;entryDx=0;entryDy=0;strokeColor=#004C99;endArrow=none;endFill=0;" edge="1" parent="1" source="J0RrZv6i257wIk_h2yhV-5" target="J0RrZv6i257wIk_h2yhV-31">
          <mxGeometry relative="1" as="geometry">
            <Array as="points">
              <mxPoint x="655" y="-1375" />
            </Array>
          </mxGeometry>
        </mxCell>
        <mxCell id="J0RrZv6i257wIk_h2yhV-5" value="&lt;font style=&quot;font-size: 14px;&quot;&gt;System&lt;/font&gt;" style="shape=umlActor;verticalLabelPosition=bottom;verticalAlign=top;html=1;outlineConnect=0;" vertex="1" parent="1">
          <mxGeometry x="1010" y="-1430" width="60" height="110" as="geometry" />
        </mxCell>
        <mxCell id="J0RrZv6i257wIk_h2yhV-58" style="edgeStyle=orthogonalEdgeStyle;rounded=0;orthogonalLoop=1;jettySize=auto;html=1;entryX=1;entryY=0.5;entryDx=0;entryDy=0;strokeColor=#00994D;endArrow=none;endFill=0;" edge="1" parent="1" source="J0RrZv6i257wIk_h2yhV-6" target="J0RrZv6i257wIk_h2yhV-25">
          <mxGeometry relative="1" as="geometry" />
        </mxCell>
        <mxCell id="J0RrZv6i257wIk_h2yhV-59" style="edgeStyle=orthogonalEdgeStyle;rounded=0;orthogonalLoop=1;jettySize=auto;html=1;entryX=1;entryY=0.5;entryDx=0;entryDy=0;strokeColor=#00994D;endArrow=none;endFill=0;" edge="1" parent="1" source="J0RrZv6i257wIk_h2yhV-6" target="J0RrZv6i257wIk_h2yhV-26">
          <mxGeometry relative="1" as="geometry" />
        </mxCell>
        <mxCell id="J0RrZv6i257wIk_h2yhV-63" style="edgeStyle=orthogonalEdgeStyle;rounded=0;orthogonalLoop=1;jettySize=auto;html=1;entryX=0.5;entryY=1;entryDx=0;entryDy=0;strokeColor=#00994D;endArrow=none;endFill=0;" edge="1" parent="1" source="J0RrZv6i257wIk_h2yhV-6" target="J0RrZv6i257wIk_h2yhV-24">
          <mxGeometry relative="1" as="geometry">
            <Array as="points">
              <mxPoint x="1040" y="-1170" />
              <mxPoint x="855" y="-1170" />
            </Array>
          </mxGeometry>
        </mxCell>
        <mxCell id="J0RrZv6i257wIk_h2yhV-64" style="edgeStyle=orthogonalEdgeStyle;rounded=0;orthogonalLoop=1;jettySize=auto;html=1;entryX=0.5;entryY=0;entryDx=0;entryDy=0;endArrow=none;endFill=0;strokeColor=#00994D;" edge="1" parent="1" source="J0RrZv6i257wIk_h2yhV-6" target="J0RrZv6i257wIk_h2yhV-27">
          <mxGeometry relative="1" as="geometry">
            <Array as="points">
              <mxPoint x="1040" y="-1170" />
              <mxPoint x="655" y="-1170" />
            </Array>
          </mxGeometry>
        </mxCell>
        <mxCell id="J0RrZv6i257wIk_h2yhV-6" value="&lt;font style=&quot;font-size: 14px;&quot;&gt;Admin&lt;/font&gt;&lt;div&gt;&lt;font style=&quot;font-size: 16px;&quot;&gt;&lt;br&gt;&lt;/font&gt;&lt;/div&gt;" style="shape=umlActor;verticalLabelPosition=bottom;verticalAlign=top;html=1;outlineConnect=0;" vertex="1" parent="1">
          <mxGeometry x="1010" y="-1120" width="60" height="110" as="geometry" />
        </mxCell>
      </root>
    </mxGraphModel>
  </diagram>
</mxfile>
